# Blender v2.93.0 OBJ File: ''
# www.blender.org
mtllib Ruin.mtl
o Ruin_Cube.077
v 0.791175 -0.050532 -0.791175
v 0.791175 0.198028 -0.791175
v -0.557080 0.198028 0.557080
v -0.557080 0.198028 -0.557080
v 0.557080 0.198028 -0.557080
v 0.557080 0.198028 0.557080
v -0.557080 0.489057 0.557080
v -0.557080 0.489057 -0.557080
v 0.557080 0.489057 -0.557080
v 0.557080 0.489057 0.557080
v -0.491190 0.489057 0.491190
v -0.491190 0.489057 -0.491190
v 0.491190 0.489057 -0.491190
v 0.491190 0.489057 0.491190
v -0.491190 0.632025 0.491190
v -0.491190 0.632025 -0.491190
v 0.491190 0.632025 -0.491190
v 0.491190 0.632025 0.491190
v -0.545719 0.632025 -0.545719
v 0.545719 0.632025 0.545719
v -0.545719 2.090086 -0.545719
v 0.545719 2.090086 0.545719
v -0.468669 2.090086 0.468669
v 0.468669 2.090086 -0.468669
v 0.468669 2.090086 0.468669
v -0.468669 2.912209 -0.278836
v -0.468669 2.090086 -0.355486
v -0.355486 2.090086 -0.468669
v -0.545691 2.090086 -0.545691
v -0.355486 2.912209 -0.468669
v -0.468669 2.912209 -0.355486
v -0.468669 2.738926 0.468669
v -0.468669 2.834290 0.217202
v 0.438840 0.632025 -0.545719
v 0.545719 0.632025 -0.438840
v 0.491217 0.632025 -0.491217
v 0.545719 2.090086 -0.438840
v 0.438840 2.090086 -0.545719
v 0.470144 2.090086 -0.470144
v 0.791175 -0.050532 0.537150
v 0.537150 -0.050532 0.791175
v 0.537150 0.198028 0.791175
v 0.791175 0.198028 0.537150
v 0.611552 0.198028 0.611552
v -0.683913 -0.050532 0.791175
v -0.791175 -0.050532 0.683913
v -0.791175 0.198028 0.683913
v -0.683913 0.198028 0.791175
v -0.715329 0.198028 0.715329
v -0.791175 -0.050532 -0.619791
v -0.619791 -0.050532 -0.791175
v -0.619791 0.198028 -0.791175
v -0.791175 0.198028 -0.619791
v -0.669988 0.198028 -0.669988
v -0.503938 0.632025 0.545719
v -0.545719 0.632025 0.503938
v -0.516175 0.632025 0.516175
v -0.545719 2.090086 0.503938
v -0.503938 2.090086 0.545719
v -0.516175 2.090086 0.516175
v 0.182855 2.912209 -0.468669
v 0.468669 2.867313 -0.468669
v 0.468669 2.867313 -0.397224
v 0.182855 2.912209 -0.278836
v 0.468669 2.808858 -0.025100
v 0.182855 2.834290 0.217202
v 0.468669 2.621605 0.468669
v 0.182855 2.738926 0.468669
v 0.025179 3.053295 -0.507377
v -0.582544 3.755342 -0.167269
v -0.536991 3.796031 0.068165
v -0.406451 3.053295 0.153432
v -0.446979 3.144985 -0.078720
v 0.110882 3.279223 0.491346
v 0.542512 3.279223 -0.169463
v 0.496472 3.190544 -0.199536
v -0.274915 3.053295 -0.047945
v -0.406451 3.053295 0.153432
v 0.110882 3.279223 0.491346
v 0.196378 3.190544 0.259897
v 0.101606 3.468123 0.413909
v 0.086365 3.389604 0.475332
v -0.518573 3.801394 0.080196
v -0.417320 3.821364 0.074954
v -0.077342 3.821364 -0.445539
v -0.142111 3.785329 -0.616648
v 0.532026 3.326433 -0.176312
v 0.441584 3.468123 -0.106585
v -0.142111 3.785329 -0.616648
v -0.333953 3.755342 -0.547852
v -0.198388 3.144985 -0.459303
v 0.025179 3.053295 -0.507377
v -0.066554 3.801319 0.245309
v 0.048093 3.800262 0.012578
v 0.178449 4.200039 0.074818
v 0.063802 4.201097 0.307549
v 0.101558 4.033864 0.530244
v 0.102647 4.171402 0.433718
v 0.426375 3.862592 0.384590
v 0.433743 3.719859 0.347561
v 0.307316 3.816501 -0.063073
v 0.208474 3.760715 -0.046927
v -0.023817 3.768651 0.384119
v 0.039423 3.843306 0.500577
v 0.433743 3.719859 0.347561
v 0.303765 3.687874 0.262577
v 0.276959 4.175748 0.038268
v 0.369236 4.006396 -0.033509
v 0.433617 4.039807 0.352651
v 0.368358 4.105882 0.335132
vt 0.281400 0.176116
vt 0.291603 0.176164
vt 0.291292 0.224189
vt 0.281090 0.224142
vt 0.417664 0.161844
vt 0.424406 0.168578
vt 0.424406 0.224108
vt 0.372151 0.224189
vt 0.362158 0.214207
vt 0.362158 0.166151
vt 0.366378 0.161923
vt 0.479576 0.216993
vt 0.476650 0.224065
vt 0.424406 0.224189
vt 0.433613 0.214959
vt 0.477433 0.214856
vt 0.280601 0.161838
vt 0.270393 0.161844
vt 0.270393 0.109571
vt 0.280601 0.109565
vt 0.429172 0.166705
vt 0.431146 0.161933
vt 0.482422 0.161812
vt 0.483658 0.164792
vt 0.477433 0.171031
vt 0.433613 0.171135
vt 0.393760 0.015025
vt 0.393760 0.058871
vt 0.381807 0.058878
vt 0.381807 0.015032
vt 0.486641 0.166021
vt 0.486641 0.214050
vt 0.381301 0.057990
vt 0.381301 0.101814
vt 0.378710 0.099228
vt 0.378710 0.060587
vt 0.358648 0.014117
vt 0.358648 0.057990
vt 0.346709 0.057983
vt 0.346709 0.014111
vt 0.284240 0.058074
vt 0.284240 0.101896
vt 0.272294 0.101918
vt 0.272294 0.058096
vt 0.279530 0.009659
vt 0.279530 0.053378
vt 0.267576 0.053373
vt 0.267576 0.009654
vt 0.433408 0.123149
vt 0.433408 0.161808
vt 0.427536 0.161812
vt 0.427536 0.123152
vt 0.337481 0.101918
vt 0.337481 0.058094
vt 0.340072 0.060679
vt 0.340072 0.099320
vt 0.445850 0.061103
vt 0.445850 0.099765
vt 0.443705 0.101915
vt 0.443705 0.063166
vt 0.445849 0.061102
vt 0.346709 0.019306
vt 0.346709 0.057990
vt 0.340844 0.057986
vt 0.340844 0.019303
vt 0.272294 0.063268
vt 0.272294 0.101907
vt 0.266425 0.101918
vt 0.266425 0.063279
vt 0.270693 0.185641
vt 0.270693 0.224189
vt 0.264820 0.224187
vt 0.264820 0.185639
vt 0.484495 0.099705
vt 0.484495 0.061043
vt 0.486641 0.058894
vt 0.486641 0.100204
vt 0.485478 0.100687
vt 0.381301 0.161844
vt 0.340016 0.161768
vt 0.340016 0.101918
vt 0.381301 0.101994
vt 0.381479 0.058975
vt 0.422762 0.058877
vt 0.423244 0.060038
vt 0.421375 0.061911
vt 0.388961 0.061988
vt 0.381480 0.058977
vt 0.381301 0.101937
vt 0.420046 0.101959
vt 0.420046 0.161844
vt 0.381301 0.161822
vt 0.447909 0.058954
vt 0.384451 0.098926
vt 0.381479 0.097702
vt 0.384509 0.066451
vt 0.384509 0.098868
vt 0.484997 0.101851
vt 0.314389 0.131853
vt 0.340016 0.131853
vt 0.339910 0.151521
vt 0.314283 0.151521
vt 0.424406 0.060517
vt 0.424406 0.101804
vt 0.421375 0.098781
vt 0.314372 0.124386
vt 0.335547 0.124386
vt 0.340009 0.128838
vt 0.385682 0.101896
vt 0.303704 0.101918
vt 0.303692 0.069579
vt 0.337461 0.069579
vt 0.337470 0.090703
vt 0.335630 0.101918
vt 0.303711 0.064762
vt 0.337481 0.064762
vt 0.339746 0.161605
vt 0.314119 0.161605
vt 0.427555 0.058894
vt 0.427555 0.022026
vt 0.449372 0.021986
vt 0.454188 0.033219
vt 0.454188 0.058844
vt 0.454188 0.025168
vt 0.486641 0.025151
vt 0.486641 0.051768
vt 0.476739 0.055685
vt 0.457206 0.058892
vt 0.454188 0.058894
vt 0.424406 0.101896
vt 0.424406 0.161781
vt 0.362158 0.224174
vt 0.323525 0.224189
vt 0.323525 0.164297
vt 0.362158 0.164282
vt 0.281090 0.165634
vt 0.291292 0.165681
vt 0.443646 0.154517
vt 0.433436 0.154518
vt 0.433408 0.099153
vt 0.443618 0.099152
vt 0.280889 0.224155
vt 0.270693 0.224189
vt 0.270893 0.219921
vt 0.281090 0.219887
vt 0.424406 0.168690
vt 0.443618 0.161810
vt 0.433408 0.161812
vt 0.270693 0.168586
vt 0.280889 0.168551
vt 0.445308 0.101998
vt 0.445308 0.161812
vt 0.443646 0.161728
vt 0.443646 0.101915
vt 0.486641 0.161790
vt 0.486641 0.101976
vt 0.303048 0.127288
vt 0.303041 0.124478
vt 0.302647 0.161844
vt 0.302968 0.142043
vt 0.291603 0.224189
vt 0.291603 0.187302
vt 0.323525 0.187284
vt 0.323525 0.190096
vt 0.321124 0.204741
vt 0.313433 0.224177
vt 0.333263 0.054305
vt 0.337481 0.060012
vt 0.337481 0.060012
vt 0.331058 0.064762
vt 0.313159 0.064762
vt 0.306411 0.058317
vt 0.306416 0.057468
vt 0.308784 0.054305
vt 0.299825 0.076865
vt 0.298156 0.077880
vt 0.291830 0.077718
vt 0.284240 0.059218
vt 0.286286 0.055751
vt 0.290189 0.053378
vt 0.290189 0.053378
vt 0.296992 0.060256
vt 0.303692 0.076586
vt 0.400110 0.027315
vt 0.400110 0.048890
vt 0.400110 0.058347
vt 0.400110 0.058347
vt 0.393760 0.051788
vt 0.393760 0.033916
vt 0.400110 0.027315
vt 0.301625 0.137303
vt 0.301625 0.137303
vt 0.301432 0.141900
vt 0.281332 0.161681
vt 0.280601 0.161558
vt 0.280601 0.130802
vt 0.280601 0.130802
vt 0.279530 0.053378
vt 0.279530 0.022979
vt 0.288958 0.023683
vt 0.288217 0.048689
vt 0.424406 0.058878
vt 0.422255 0.049214
vt 0.422255 0.027639
vt 0.302647 0.144876
vt 0.285405 0.161844
vt 0.303692 0.021505
vt 0.302951 0.046511
vt 0.288296 0.101918
vt 0.284240 0.096221
vt 0.308589 0.028978
vt 0.333067 0.028978
vt 0.358648 0.052520
vt 0.378957 0.029524
vt 0.381301 0.038932
vt 0.364281 0.057990
vt 0.378957 0.029524
vt 0.358648 0.052520
vt 0.358648 0.021271
vt 0.359965 0.019797
vt 0.363908 0.018972
vt 0.312069 0.121010
vt 0.310125 0.117875
vt 0.310125 0.106868
vt 0.315503 0.108055
vt 0.319145 0.122524
vt 0.324769 0.107539
vt 0.332682 0.106937
vt 0.337597 0.121483
vt 0.330802 0.124386
vt 0.324769 0.124339
vt 0.323525 0.169952
vt 0.323525 0.187104
vt 0.319418 0.187284
vt 0.313726 0.181712
vt 0.313726 0.173564
vt 0.316839 0.170245
vt 0.426797 0.080411
vt 0.443646 0.080411
vt 0.442483 0.089456
vt 0.425633 0.089456
vt 0.443367 0.062970
vt 0.438385 0.066509
vt 0.425754 0.065858
vt 0.426609 0.062107
vt 0.443367 0.062970
vt 0.324769 0.124386
vt 0.324769 0.124386
vt 0.323722 0.107761
vt 0.442910 0.095066
vt 0.439072 0.099152
vt 0.431041 0.099152
vt 0.426022 0.094555
vt 0.443646 0.079850
vt 0.438385 0.080411
vt 0.432720 0.080119
vt 0.425754 0.072664
vt 0.340016 0.107954
vt 0.340016 0.120100
vt 0.302502 0.174494
vt 0.306663 0.174644
vt 0.313726 0.182021
vt 0.313726 0.187284
vt 0.302502 0.186879
vn 0.0000 0.0000 1.0000
vn 0.0000 -1.0000 -0.0000
vn 0.0000 1.0000 0.0000
vn 1.0000 0.0000 0.0000
vn -1.0000 0.0000 0.0000
vn 0.0000 0.0000 -1.0000
vn 0.0000 0.9879 0.1552
vn -0.7071 0.0000 -0.7071
vn 0.0000 0.9350 0.3546
vn 0.7071 0.0000 -0.7071
vn 0.7071 0.0000 0.7071
vn -0.7071 0.0000 0.7071
vn 0.1552 0.9879 -0.0000
vn 0.3583 0.8729 0.3310
vn 0.2144 0.9649 0.1516
vn -0.1983 0.9715 -0.1295
vn 0.8092 0.2564 0.5286
vn 0.7115 -0.5270 0.4648
vn -0.4145 -0.8688 -0.2708
vn -0.5469 0.0000 0.8372
vn -0.9722 -0.1706 0.1604
vn 0.1665 -0.9462 0.2773
vn 0.1983 -0.9715 0.1295
vn -0.0828 0.6239 0.7771
vn -0.8092 -0.2564 -0.5286
vn 0.6783 0.6239 -0.3881
vn 0.4145 0.8688 0.2708
vn -0.2931 -0.2038 -0.9341
vn 0.5469 0.0000 -0.8372
vn 0.4382 0.3647 0.8216
vn 0.9713 -0.0963 -0.2177
vn -0.2858 0.2377 -0.9283
vn -0.8431 0.3398 -0.4169
vn 0.4229 -0.8444 -0.3289
vn 0.2899 -0.2334 0.9282
vn -0.9092 0.2440 0.3373
vn -0.0515 -0.8614 0.5054
vn -0.2844 -0.9490 -0.1358
vn 0.8047 0.5737 -0.1529
vn 0.2844 0.9490 0.1358
usemtl None
s off
f 41/1/1 42/2/1 48/3/1 45/4/1
f 50/5/2 51/6/2 1/7/2 40/8/2 41/9/2 45/10/2 46/11/2
f 44/12/3 43/13/3 2/14/3 5/15/3 6/16/3
f 1/17/4 2/18/4 43/19/4 40/20/4
f 54/21/3 53/22/3 47/23/3 49/24/3 3/25/3 4/26/3
f 6/27/4 5/28/4 9/29/4 10/30/4
f 49/24/3 48/31/3 42/32/3 44/12/3 6/16/3 3/25/3
f 7/33/3 10/34/3 14/35/3 11/36/3
f 4/37/5 3/38/5 7/39/5 8/40/5
f 3/41/1 6/42/1 10/43/1 7/44/1
f 5/45/6 4/46/6 8/47/6 9/48/6
f 14/49/4 13/50/4 17/51/4 18/52/4
f 9/53/3 8/54/3 12/55/3 13/56/3
f 10/34/3 9/53/3 13/56/3 14/35/3
f 8/54/3 7/33/3 11/36/3 12/55/3
f 17/57/2 16/58/2 19/59/2 34/60/2 36/61/2
f 12/62/5 11/63/5 15/64/5 16/65/5
f 11/66/1 14/67/1 18/68/1 15/69/1
f 13/70/6 12/71/6 16/72/6 17/73/6
f 15/74/2 18/75/2 20/76/2 55/77/2 57/78/2
f 55/79/1 20/80/1 22/81/1 59/82/1
f 21/83/3 58/84/3 60/85/3 23/86/3 27/87/3 29/88/3
f 20/89/4 35/90/4 37/91/4 22/92/4
f 18/75/2 17/57/2 36/61/2 35/93/2 20/76/2
f 39/94/3 38/95/3 21/83/3 29/88/3 28/96/3 24/97/3
f 16/58/2 15/74/2 57/78/2 56/98/2 19/59/2
f 64/99/7 26/100/7 33/101/7 66/102/7
f 60/85/3 59/103/3 22/104/3 25/105/3 23/86/3
f 61/106/3 30/107/3 31/108/3 26/100/3 64/99/3
f 22/104/3 37/109/3 39/94/3 24/97/3 25/105/3
f 24/110/6 28/111/6 30/112/6 61/113/6 62/114/6
f 27/87/3 28/96/3 29/88/3
f 30/112/8 28/111/8 27/115/8 31/116/8
f 32/117/9 68/118/9 66/102/9 33/101/9
f 23/119/1 25/120/1 67/121/1 68/122/1 32/123/1
f 27/124/5 23/125/5 32/126/5 33/127/5 26/128/5 31/129/5
f 34/60/2 35/93/2 36/61/2
f 37/109/3 38/95/3 39/94/3
f 37/91/10 35/90/10 34/130/10 38/131/10
f 34/132/6 19/133/6 21/134/6 38/135/6
f 42/32/3 43/13/3 44/12/3
f 42/2/11 41/1/11 40/136/11 43/137/11
f 51/138/6 52/139/6 2/140/6 1/141/6
f 47/23/3 48/31/3 49/24/3
f 45/142/12 48/143/12 47/144/12 46/145/12
f 2/14/3 52/146/3 54/21/3 4/26/3 5/15/3
f 52/146/3 53/22/3 54/21/3
f 52/139/8 51/138/8 50/147/8 53/148/8
f 46/145/5 47/144/5 53/149/5 50/150/5
f 55/77/2 56/98/2 57/78/2
f 58/84/3 59/103/3 60/85/3
f 58/151/12 56/152/12 55/153/12 59/154/12
f 19/155/5 56/152/5 58/151/5 21/156/5
f 63/157/13 62/158/13 61/106/13 64/99/13
f 67/159/14 65/160/14 66/102/14 68/118/14
f 65/160/15 63/157/15 64/99/15 66/102/15
f 25/161/4 24/162/4 62/163/4 63/164/4 65/165/4 67/166/4
f 85/167/16 86/168/16 89/169/16 90/170/16 70/171/16 71/172/16 83/173/16 84/174/16
f 75/175/17 87/176/17 88/177/17 81/178/17 82/179/17 74/180/17
f 79/181/18 80/182/18 76/183/18 75/175/18 74/180/18
f 69/184/19 77/185/19 78/186/19 72/187/19 73/188/19 91/189/19 92/190/19
f 79/191/20 74/192/20 82/193/20 83/194/20 71/195/20 72/196/20 78/197/20
f 72/198/21 71/199/21 70/200/21 73/201/21
f 79/202/22 78/186/22 77/185/22 80/203/22
f 69/184/23 76/204/23 80/203/23 77/185/23
f 83/194/24 82/193/24 81/205/24 84/206/24
f 73/201/25 70/200/25 90/207/25 91/208/25
f 87/176/26 86/209/26 85/210/26 88/177/26
f 85/167/27 84/174/27 81/211/27 88/212/27
f 89/213/28 92/214/28 91/215/28 90/216/28
f 69/217/29 92/214/29 89/213/29 86/218/29 87/219/29 75/220/29 76/221/29
f 109/222/30 110/223/30 98/224/30 97/225/30 99/226/30
f 101/227/31 108/228/31 109/229/31 99/230/31 100/231/31
f 94/232/32 95/233/32 107/234/32 108/235/32 101/236/32 102/237/32
f 95/238/33 94/239/33 93/240/33 96/241/33
f 105/242/34 106/243/34 102/244/34 101/245/34 100/246/34
f 105/247/35 100/248/35 99/226/35 97/225/35 104/249/35
f 103/250/36 104/251/36 97/252/36 98/253/36 96/241/36 93/240/36
f 105/242/37 104/254/37 103/255/37 106/243/37
f 93/256/38 94/257/38 102/244/38 106/243/38 103/255/38
f 109/229/39 108/228/39 107/258/39 110/259/39
f 107/260/40 95/261/40 96/262/40 98/263/40 110/264/40
